<svg version="1.1" id="Layer_1" xmlns="http://www.w3.org/2000/svg" xmlns:xlink="http://www.w3.org/1999/xlink" x="0px" y="0px"
	 width="100%" viewBox="0 0 1024 1024" enable-background="new 0 0 1024 1024" xml:space="preserve">
<path fill="#000000" opacity="1.000000" stroke="none" 
	d="
M531.466919,338.557770 
	C539.479980,348.180573 546.769714,357.977692 556.074036,367.242920 
	C556.423035,363.729034 554.870972,362.329834 553.762268,360.771393 
	C532.657654,331.104919 509.691193,303.082184 482.453674,278.712219 
	C475.675476,272.647614 468.840576,266.212921 467.248535,256.448792 
	C466.038544,249.027679 465.867188,241.579742 467.316772,234.170593 
	C467.612427,232.659454 467.454254,230.523788 469.649200,230.211227 
	C471.564606,229.938461 472.654022,231.545349 473.627167,232.830872 
	C476.743073,236.947098 479.680847,241.197769 482.775665,245.330444 
	C484.223877,247.264252 485.640167,249.327438 488.559692,250.388916 
	C488.549622,245.615448 486.059753,242.130981 484.746094,238.314697 
	C481.335083,228.405594 477.814728,218.548477 477.638214,207.883148 
	C477.559570,203.131271 478.740967,198.652695 480.489990,194.325729 
	C482.659760,188.957825 484.603546,188.507812 488.017090,193.026581 
	C493.634888,200.463318 498.840698,208.210815 504.242249,215.811600 
	C506.044708,218.347946 507.505646,221.183243 510.751343,223.650177 
	C511.394867,217.616989 508.836273,212.805405 508.208557,207.734955 
	C506.600586,194.746674 503.206940,181.870865 505.707031,168.651855 
	C506.427002,164.845016 506.514771,159.496841 510.970520,158.809219 
	C515.447449,158.118317 516.447449,163.465027 518.096558,166.708527 
	C524.412903,179.131531 530.442749,191.701508 538.567017,203.388565 
	C537.792664,196.599442 536.702942,189.828400 536.312439,183.017273 
	C535.594177,170.491409 536.831238,158.111984 540.734985,146.125275 
	C542.061707,142.051529 544.652100,141.657532 547.037842,145.183884 
	C548.887146,147.917252 550.418457,150.952881 551.589905,154.044113 
	C562.782349,183.579391 577.789368,211.239182 592.956299,238.833740 
	C602.418213,256.048584 612.246643,273.096527 619.153259,291.582520 
	C623.655579,303.633240 624.818054,315.988708 623.738220,328.855652 
	C622.292053,346.087433 620.054932,363.158905 616.654297,380.100067 
	C615.961914,383.549713 617.393494,384.843323 620.866455,383.536591 
	C629.912964,380.132721 638.711487,376.161194 647.412903,371.972961 
	C663.634033,364.165344 680.696960,360.442322 698.689026,361.710510 
	C711.617126,362.621735 723.557434,366.772552 733.510986,375.158356 
	C740.783264,381.285248 749.041443,384.618042 758.081421,386.654846 
	C764.420044,388.083038 770.671692,389.834473 776.498718,392.794739 
	C778.367554,393.744141 780.562073,394.471771 781.067383,397.700928 
	C776.266418,398.592560 771.460327,399.350891 766.715820,400.390350 
	C749.643433,404.130829 733.239258,409.539886 719.887634,421.432861 
	C707.294861,432.649841 696.689331,445.788849 685.289062,458.155792 
	C669.823975,474.932251 655.164978,492.638428 636.644104,506.177460 
	C609.453308,526.054382 579.846497,540.968811 545.864624,545.050232 
	C525.802734,547.459839 505.719543,546.989014 485.681824,543.814026 
	C469.786560,541.295471 453.956268,537.968994 437.821167,537.430664 
	C413.600525,536.622620 391.534821,543.264771 371.594513,557.213196 
	C360.134552,565.229492 348.360657,572.803162 336.626862,580.420166 
	C323.363342,589.030151 309.150452,594.611511 292.929657,593.342224 
	C286.367188,592.828735 280.151855,591.227844 274.482513,587.779480 
	C272.738739,586.718872 270.913849,585.548218 270.893646,583.315552 
	C270.869293,580.625977 273.607086,580.767334 275.214752,579.833557 
	C276.473206,579.102600 277.949036,578.745972 279.048065,578.329285 
	C272.637970,578.329285 265.978943,578.479614 259.329651,578.289856 
	C251.636490,578.070374 244.125381,576.668701 237.006042,573.636780 
	C234.763809,572.681824 232.002350,571.903320 231.859055,568.839783 
	C231.721130,565.891235 234.465881,565.171204 236.430237,564.152649 
	C245.642136,559.376221 255.713272,556.879822 265.439667,553.470032 
	C326.272461,532.143677 384.920227,506.159668 439.656464,471.827484 
	C441.467194,470.691711 443.430359,469.728973 444.730347,467.790924 
	C443.564667,465.791962 441.546906,465.697479 439.637299,465.249451 
	C429.217957,462.804779 418.912811,459.962616 410.658966,452.647156 
	C402.800018,445.681671 402.884216,443.725067 410.596130,437.518829 
	C409.246216,435.567322 406.968079,435.256561 405.015167,434.487885 
	C396.790314,431.250336 388.697601,427.713806 381.149017,423.110687 
	C372.752197,417.990295 372.735291,416.260193 380.536713,411.426453 
	C380.279144,408.744659 377.829437,408.907745 376.154358,408.227325 
	C365.918610,404.069183 355.843811,399.683655 348.677521,390.722046 
	C345.298096,386.496063 345.765930,385.076019 351.102783,383.732452 
	C354.802155,382.801147 358.590515,382.193512 362.192596,380.453094 
	C360.516785,379.087280 358.606659,378.705811 356.703888,378.142883 
	C340.891327,373.465027 325.915344,367.218964 314.573181,354.571472 
	C312.808014,352.603180 311.231750,350.392975 309.943848,348.084991 
	C307.553711,343.801819 308.652405,341.827881 313.532227,341.777344 
	C319.333191,341.717224 325.082977,341.488129 330.904419,340.077423 
	C330.718506,337.273315 328.573425,337.609314 326.955566,337.169373 
	C311.815399,333.052338 296.900513,328.420654 284.199463,318.655823 
	C278.110718,313.974640 273.645630,308.077850 270.758545,300.981171 
	C270.075287,299.301697 269.026459,297.450623 270.391785,295.787018 
	C271.887451,293.964600 274.090881,294.529419 275.993225,295.035034 
	C285.009644,297.431305 294.177887,298.330170 303.583923,297.985565 
	C293.584625,293.913147 283.743652,289.616089 274.553864,284.005829 
	C259.531219,274.834717 246.615067,263.535492 238.598587,247.488510 
	C237.247971,244.784927 234.472565,241.531921 236.747665,238.795380 
	C239.256577,235.777634 242.649887,238.728165 245.450638,239.718323 
	C258.309021,244.264130 271.040100,249.183517 284.419617,252.091003 
	C285.722595,252.374146 286.964874,252.861496 289.102539,252.144974 
	C283.012207,248.025604 277.300629,244.242783 271.672058,240.340210 
	C255.347427,229.021408 240.978302,215.777298 231.060623,198.287766 
	C226.427689,190.117706 222.958237,181.506775 222.319321,171.981750 
	C222.286011,171.485001 222.031967,170.964005 222.125732,170.504288 
	C222.637558,167.995071 221.559662,164.659225 224.264893,163.241898 
	C226.960251,161.829742 228.839966,164.634109 230.686264,166.073471 
	C244.873077,177.133514 258.941498,188.349838 274.121765,198.054260 
	C276.754486,199.737289 279.569855,201.134628 282.887360,202.992371 
	C282.682098,200.382263 281.013031,199.688766 279.952087,198.637894 
	C266.737183,185.548798 254.499969,171.741135 247.786713,153.994080 
	C243.858170,143.608658 242.178543,132.818710 242.674469,121.708649 
	C242.756943,119.861053 242.770569,117.859886 244.816864,117.054741 
	C246.655411,116.331337 248.051132,117.694710 249.217484,118.801514 
	C253.082169,122.468925 256.967682,126.133080 260.585632,130.038910 
	C289.708344,161.478821 324.417297,185.929947 359.895691,209.391464 
	C383.803253,225.201309 409.046844,238.814117 433.556671,253.638412 
	C470.986389,276.277008 503.824036,304.132111 531.466919,338.557770 
M706.491882,385.012146 
	C701.393127,382.901245 697.676758,384.176331 696.003601,388.610840 
	C694.780762,391.851837 696.761963,395.427216 700.494568,396.766785 
	C703.623840,397.889832 706.043091,396.686218 707.955688,394.328461 
	C710.539673,391.143127 709.658020,388.179016 706.491882,385.012146 
z"/>
<path fill="#000000" opacity="1.000000" stroke="none" 
	d="
M655.653076,706.406250 
	C663.970276,716.755737 664.722595,727.969727 660.105774,739.502136 
	C655.696472,750.516418 646.647827,755.395813 635.153809,756.447388 
	C620.529602,757.785217 605.876587,756.790833 591.243408,757.194702 
	C587.775879,757.290405 586.621582,755.762512 586.628479,752.393921 
	C586.697266,718.937134 586.697510,685.480042 586.612976,652.023315 
	C586.604614,648.708252 587.658569,647.006104 591.098511,647.015625 
	C605.399658,647.055359 619.794739,645.742188 633.964722,647.931641 
	C645.067078,649.646973 654.210938,655.273438 657.210022,667.048096 
	C660.356750,679.401733 658.309692,690.528076 646.743591,698.771484 
	C649.746399,701.306519 653.078064,703.184387 655.653076,706.406250 
M629.066589,711.337402 
	C623.487244,710.036865 617.814819,710.399597 612.162842,710.386169 
	C610.347473,710.381836 608.803467,710.630066 608.833801,713.011841 
	C608.920654,719.836548 608.956787,726.661865 609.036926,733.486694 
	C609.064209,735.806091 610.397034,736.664246 612.594177,736.646362 
	C618.088257,736.601562 623.606140,736.926331 629.069763,736.512573 
	C633.256775,736.195435 637.542847,734.977356 638.838684,730.138916 
	C641.265503,721.078003 639.420959,713.176086 629.066589,711.337402 
M632.047913,687.654114 
	C636.338379,684.437561 636.166870,679.888733 635.291565,675.428833 
	C634.475952,671.273254 631.001343,669.936401 627.245667,669.042175 
	C622.138367,667.826233 616.997437,668.557861 611.872803,668.462952 
	C609.768921,668.423950 608.987427,669.837158 608.981323,671.739868 
	C608.961731,677.835999 608.974060,683.932190 608.974060,690.740540 
	C616.809082,689.727600 624.283020,690.931824 632.047913,687.654114 
z"/>
<path fill="#000000" opacity="1.000000" stroke="none" 
	d="
M171.951492,756.325928 
	C156.887161,757.835266 142.214371,756.755005 127.567383,757.125000 
	C123.046715,757.239197 123.076721,754.249512 123.075813,751.072693 
	C123.067665,722.741394 123.012184,694.410034 123.028259,666.078735 
	C123.031181,660.917908 123.324768,655.757812 123.425682,650.596252 
	C123.467384,648.463074 124.172417,646.973083 126.555840,647.023254 
	C141.675095,647.341553 156.897995,645.426575 171.886688,648.497803 
	C182.845413,650.743347 190.670364,656.940369 193.303360,668.294067 
	C195.998581,679.916016 193.698471,690.089539 183.882568,697.796204 
	C183.521347,698.079773 183.297165,698.537842 182.793655,699.196411 
	C196.636124,707.567932 200.968002,719.994934 197.357040,735.152039 
	C194.283539,748.052979 185.001404,754.314819 171.951492,756.325928 
M161.694656,710.856506 
	C157.405701,709.988770 153.065842,710.538757 148.751312,710.383850 
	C146.168335,710.291138 145.214417,711.583618 145.234482,714.047424 
	C145.285980,720.371582 145.275467,726.696716 145.224030,733.020935 
	C145.203857,735.500549 146.217285,736.689270 148.787216,736.652527 
	C154.278305,736.573914 159.787369,736.871582 165.258759,736.529907 
	C171.476791,736.141602 174.856339,733.183960 175.609131,728.284790 
	C177.307922,717.229004 173.611206,712.353455 161.694656,710.856506 
M145.253891,678.530273 
	C145.260468,681.189880 145.415695,683.859497 145.236572,686.506531 
	C145.005066,689.927673 146.644592,690.919250 149.744080,690.610535 
	C153.545578,690.231750 157.356323,689.930054 161.168533,689.677612 
	C167.835587,689.236084 171.320862,686.296143 171.668228,680.726135 
	C172.139221,673.173218 170.142639,670.709534 162.642838,669.012573 
	C159.831177,668.376343 157.039352,668.394775 154.223221,668.399841 
	C144.096222,668.418091 145.311417,667.484253 145.253891,678.530273 
z"/>
<path fill="#000000" opacity="1.000000" stroke="none" 
	d="
M727.677612,737.998901 
	C727.673645,709.668640 727.661377,681.838013 727.672974,654.007385 
	C727.675781,647.287842 727.944214,646.914001 734.754028,647.015442 
	C746.906372,647.196411 759.050842,646.609314 771.217102,647.524170 
	C791.163513,649.024048 804.166504,663.739258 802.624878,683.747925 
	C801.425598,699.312744 797.887390,705.134888 783.787781,714.304565 
	C790.581238,727.803833 797.407959,741.369202 804.641174,755.742432 
	C796.237183,757.483398 789.121521,757.038879 782.045105,756.764893 
	C779.704163,756.674255 779.057373,754.326843 778.168152,752.581848 
	C773.100769,742.638245 768.096802,732.662292 763.029175,722.718811 
	C760.930603,718.601013 757.023865,717.257019 752.659180,718.781433 
	C750.054443,719.691101 750.343872,721.727051 750.340027,723.690063 
	C750.321716,733.022461 750.176697,742.359192 750.420227,751.685364 
	C750.527649,755.797852 748.910400,756.911377 745.093811,756.630981 
	C740.614624,756.302063 736.101929,756.358826 731.604370,756.377441 
	C728.888428,756.388672 727.650269,755.246399 727.687927,752.496704 
	C727.751953,747.831604 727.688171,743.164734 727.677612,737.998901 
M750.350159,675.696716 
	C750.352417,682.024841 750.380676,688.353088 750.343018,694.680969 
	C750.329651,696.936035 750.747070,698.666321 753.545837,698.630615 
	C758.373535,698.568909 763.242432,698.957092 768.021179,698.458435 
	C776.150940,697.610168 780.969299,691.053772 780.633362,682.071716 
	C780.308472,673.385071 775.638428,668.738403 766.754639,668.403931 
	C763.428772,668.278687 760.065308,668.660889 756.770386,668.317993 
	C751.724304,667.792725 749.542725,669.674438 750.350159,675.696716 
z"/>
<path fill="#000000" opacity="1.000000" stroke="none" 
	d="
M878.358887,651.360474 
	C893.349609,657.600037 901.623291,669.153625 904.651672,684.078003 
	C907.960327,700.383972 908.331787,716.891541 900.561401,732.340576 
	C892.774231,747.823059 879.882019,755.847656 862.574707,756.316589 
	C851.427246,756.618713 840.263123,756.263550 829.111389,756.468933 
	C825.116821,756.542480 823.557007,755.397705 823.575256,751.143372 
	C823.715637,718.343445 823.664429,685.542664 823.622742,652.742249 
	C823.619080,649.849243 823.737854,647.247803 827.560059,647.298462 
	C844.455200,647.522339 861.515015,645.651978 878.358887,651.360474 
M883.638794,695.872253 
	C882.979919,692.291748 882.548584,688.651001 881.618530,685.142395 
	C879.095581,675.625000 872.700195,670.076965 863.087341,668.668518 
	C858.687622,668.023926 854.128357,668.452332 849.641235,668.426025 
	C847.359436,668.412659 846.361572,669.656128 846.362183,671.877258 
	C846.367676,692.003845 846.378418,712.130432 846.337036,732.256897 
	C846.331726,734.819580 847.474121,735.883545 849.956665,735.818542 
	C854.112976,735.709656 858.303833,735.964783 862.421631,735.522461 
	C873.580627,734.323730 878.783936,729.506531 881.916443,718.557739 
	C883.969055,711.383545 883.631042,704.095764 883.638794,695.872253 
z"/>
<path fill="#000000" opacity="1.000000" stroke="none" 
	d="
M553.060913,757.191772 
	C545.600220,758.571960 541.744263,755.204407 538.520508,749.245361 
	C532.115051,737.405273 525.024170,725.936035 517.976624,713.904053 
	C514.002563,717.682190 510.953247,721.229980 511.246277,727.093933 
	C511.653198,735.236084 511.193146,743.418030 511.410614,751.574707 
	C511.517822,755.594482 510.233582,757.441528 506.024841,757.218140 
	C501.871918,756.997681 497.696594,757.095886 493.534210,757.190247 
	C490.308502,757.263306 488.625641,756.207336 488.633972,752.608093 
	C488.712006,718.958557 488.709503,685.308777 488.652649,651.659180 
	C488.647247,648.468384 489.950348,647.051514 493.058228,647.063660 
	C497.555603,647.081238 502.054382,647.124207 506.550171,647.034607 
	C510.171112,646.962585 511.456055,648.568237 511.404388,652.194397 
	C511.238373,663.842712 511.342621,675.494751 511.342621,687.574585 
	C513.318909,687.186401 513.973999,685.784973 514.769897,684.720825 
	C523.146301,673.522400 531.551941,662.344482 539.777283,651.035583 
	C541.965393,648.027161 544.481018,646.696045 548.192688,646.918884 
	C554.734192,647.311584 561.357239,646.358154 567.734863,647.441956 
	C568.369019,650.470398 566.628235,651.821472 565.510254,653.350159 
	C556.271851,665.982056 547.088440,678.657654 537.612000,691.109680 
	C535.268250,694.189392 535.366028,696.402161 537.318481,699.519653 
	C547.393677,715.606628 557.277588,731.813293 567.224792,747.980408 
	C568.010010,749.256592 568.843445,750.510864 569.524719,751.841797 
	C571.518005,755.735962 570.873047,756.987610 566.540100,757.150146 
	C562.215088,757.312439 557.879272,757.190002 553.060913,757.191772 
z"/>
<path fill="#000000" opacity="1.000000" stroke="none" 
	d="
M323.630432,649.693237 
	C324.358002,647.620483 325.770111,647.105774 327.322632,647.089783 
	C333.149994,647.029724 338.978424,647.039551 344.806274,647.065552 
	C348.086487,647.080200 348.679169,649.632202 349.431854,652.057129 
	C356.030609,673.317078 362.661377,694.567078 369.250977,715.829895 
	C372.988220,727.889099 376.577209,739.995178 380.424164,752.018921 
	C381.609619,755.724060 380.920197,757.332520 376.808167,757.178162 
	C372.317627,757.009521 367.814789,757.080688 363.319397,757.161682 
	C360.611847,757.210449 359.024048,756.213684 358.303375,753.442383 
	C357.175140,749.104004 355.630066,744.875366 354.444489,740.550171 
	C353.646393,737.638550 352.308594,736.017761 348.937683,736.088928 
	C340.447540,736.268066 331.949493,736.229370 323.457733,736.089050 
	C320.616760,736.042053 319.173309,737.208923 318.454529,739.821411 
	C317.264740,744.145935 315.721222,748.386780 314.771240,752.759399 
	C314.012024,756.253845 312.133606,757.357605 308.795502,757.212952 
	C304.805603,757.040100 300.802185,757.207886 296.805725,757.150757 
	C291.624634,757.076660 290.998962,756.320312 292.560120,751.132263 
	C298.401703,731.719543 304.323761,712.330994 310.260590,692.947083 
	C314.639771,678.648987 319.088867,664.372253 323.630432,649.693237 
M326.552124,711.750854 
	C326.185577,713.689331 327.084778,714.596680 328.961212,714.602905 
	C334.577850,714.621521 340.194580,714.609619 346.769165,714.609619 
	C343.178223,703.018250 339.839508,692.241089 336.149384,680.329529 
	C332.783020,691.396179 329.798218,701.208496 326.552124,711.750854 
z"/>
<path fill="#000000" opacity="1.000000" stroke="none" 
	d="
M451.615875,679.046753 
	C448.961426,670.356934 440.348389,665.987000 430.368500,667.529663 
	C420.491974,669.056458 415.068634,675.473083 412.553009,684.273804 
	C409.063995,696.480103 409.120819,708.993774 412.650970,721.209167 
	C416.600494,734.875793 429.716248,741.020386 443.140167,736.098633 
	C448.727722,734.050049 451.564972,729.938538 452.429810,723.237610 
	C459.326324,726.537231 465.759460,729.448303 472.018890,732.694397 
	C474.428192,733.943787 472.658813,735.982117 471.933533,737.482971 
	C465.186615,751.444214 453.451782,758.189453 438.517761,759.252991 
	C406.669800,761.521057 389.902802,737.793640 387.571289,711.568115 
	C386.294250,697.203308 387.470764,683.304932 393.574951,670.163818 
	C400.935486,654.317993 413.705292,646.341248 431.074127,645.665039 
	C443.642761,645.175659 455.286926,647.504028 464.370087,657.153320 
	C465.393707,658.240784 466.366699,659.395691 467.223907,660.617004 
	C473.348450,669.343201 472.861237,671.391846 463.608673,676.552734 
	C460.701263,678.174438 457.845673,679.889038 454.966827,681.561951 
	C452.444580,683.027527 451.679657,681.779907 451.615875,679.046753 
z"/>
<path fill="#000000" opacity="1.000000" stroke="none" 
	d="
M229.014740,757.145508 
	C213.858948,756.912354 215.792816,759.014160 215.749878,744.452393 
	C215.661011,714.319092 215.799042,684.184692 215.590424,654.052490 
	C215.556122,649.097290 216.884766,647.000061 222.048889,647.494751 
	C225.330490,647.809082 228.689789,647.371948 232.010696,647.202393 
	C236.750626,646.960327 238.533325,648.692322 238.471191,653.871826 
	C238.171600,678.840759 238.339340,703.815308 238.340393,728.787903 
	C238.340729,737.099243 238.326584,736.864502 246.666550,736.405090 
	C254.468719,735.975403 262.302765,736.140869 270.121857,735.994812 
	C273.772522,735.926575 275.377106,737.268921 275.432434,741.278015 
	C275.652161,757.191589 275.780121,757.191101 259.978455,757.178223 
	C249.822952,757.169922 239.667465,757.157227 229.014740,757.145508 
z"/>
<path fill="#000000" opacity="1.000000" stroke="none" 
	d="
M682.657837,702.999878 
	C682.658752,686.021240 682.824524,669.539856 682.558044,653.065552 
	C682.481445,648.328186 684.254395,646.825867 688.627380,647.054688 
	C692.279907,647.245789 695.951538,647.212158 699.610046,647.109924 
	C703.852478,646.991455 705.336121,648.816223 705.303162,653.125183 
	C705.128845,675.927673 705.217957,698.732178 705.211792,721.535950 
	C705.209106,731.523010 705.071533,741.512268 705.252625,751.495911 
	C705.322144,755.328857 703.966919,756.762939 700.112854,756.941956 
	C682.655701,757.752502 682.660828,757.836487 682.661926,740.452209 
	C682.662659,728.134766 682.659607,715.817383 682.657837,702.999878 
z"/>
<path fill="#000000" opacity="1.000000" stroke="none" 
	d="
M187.515930,846.825195 
	C184.721100,840.952087 187.135101,835.080139 186.340317,829.349792 
	C186.092682,827.564209 186.102005,825.743103 185.942764,823.089722 
	C182.481445,827.033447 181.218933,831.277954 179.351883,835.131409 
	C178.109543,837.695496 176.522629,838.963135 173.638901,838.989990 
	C170.679977,839.017517 168.605606,838.181213 167.279587,835.293701 
	C165.133484,830.620667 162.678024,826.089783 159.980164,820.762268 
	C159.980164,828.351624 159.951538,835.146362 159.993027,841.940735 
	C160.011963,845.044495 159.730286,847.452209 155.519196,847.407837 
	C151.581528,847.366272 150.769180,845.435913 150.793976,842.100098 
	C150.879333,830.617432 150.807785,819.133728 150.902237,807.651245 
	C150.917282,805.820496 150.263824,803.148621 153.149429,802.883484 
	C156.119751,802.610596 159.512085,801.491516 161.440109,805.392456 
	C165.044006,812.684387 168.804337,819.899048 173.148010,828.417480 
	C177.037140,820.539429 180.625687,813.745728 183.749863,806.744873 
	C185.356415,803.144775 187.793610,802.348389 191.286057,802.703735 
	C193.486664,802.927612 194.538025,803.733276 194.516418,806.119751 
	C194.404968,818.433777 194.330566,830.749268 194.407501,843.063232 
	C194.440201,848.296814 191.060333,847.341553 187.515930,846.825195 
z"/>
<path fill="#000000" opacity="1.000000" stroke="none" 
	d="
M450.351929,828.167114 
	C450.343719,833.302185 450.270081,837.965881 450.350800,842.626831 
	C450.401703,845.566711 449.659271,847.361084 446.184967,847.327576 
	C443.047913,847.297363 442.073578,845.714478 442.077393,842.996521 
	C442.094177,831.007629 442.092590,819.018433 442.192657,807.030151 
	C442.207214,805.286621 442.128601,803.110474 444.686066,802.818542 
	C447.205292,802.531006 449.586090,802.479492 451.196259,805.201477 
	C454.839752,811.360840 458.655334,817.419067 462.450714,823.487305 
	C463.760559,825.581543 465.217834,827.583557 467.662811,829.447205 
	C467.662811,822.242004 467.858032,815.029480 467.590210,807.834229 
	C467.427521,803.463379 469.300232,802.248474 473.259277,802.703308 
	C475.297516,802.937500 476.280640,803.833130 476.280609,805.853760 
	C476.280334,818.508667 476.283936,831.163635 476.278992,843.818542 
	C476.278259,845.668274 475.740509,847.122192 473.547760,847.224426 
	C470.712769,847.356567 468.005280,847.650696 466.178680,844.492493 
	C462.347351,837.868225 458.237091,831.404968 454.226807,824.884583 
	C453.285706,823.354370 452.286499,821.859863 450.351837,820.480408 
	C450.351837,822.885132 450.351837,825.289856 450.351929,828.167114 
z"/>
<path fill="#000000" opacity="1.000000" stroke="none" 
	d="
M260.256348,843.771973 
	C259.894257,848.137573 256.940674,847.251404 254.586716,847.237671 
	C251.717499,847.220886 251.676132,845.036987 251.674255,842.985229 
	C251.663132,830.842957 251.672852,818.700684 251.683868,806.558411 
	C251.685623,804.630371 251.860657,802.760498 254.456955,802.746704 
	C259.770233,802.718445 265.117462,802.143372 270.384308,803.074890 
	C275.452484,803.971313 279.369324,806.479614 280.722839,811.873108 
	C282.142578,817.530701 281.861664,823.060608 277.220428,827.013245 
	C274.472504,829.353516 274.835114,831.070557 276.109985,833.757446 
	C278.079895,837.909058 280.703400,841.801941 281.809174,846.357239 
	C275.392761,848.409241 274.127289,847.915405 271.411652,842.512817 
	C269.769440,839.245789 268.118042,835.983276 266.451477,832.728577 
	C265.617767,831.100403 264.366364,830.179321 262.430023,830.466980 
	C260.022278,830.824646 260.359375,832.711670 260.324921,834.317993 
	C260.260620,837.310730 260.290558,840.305481 260.256348,843.771973 
M272.710449,815.812744 
	C271.357605,811.547119 267.966553,809.645264 263.107025,810.394287 
	C258.529602,811.099792 260.712494,814.706848 260.270111,817.131470 
	C260.035828,818.415588 260.259491,819.788025 260.316437,821.118958 
	C260.372589,822.431702 261.021515,823.169128 262.347778,823.565430 
	C268.051056,825.269897 272.241730,822.503540 272.710449,815.812744 
z"/>
<path fill="#000000" opacity="1.000000" stroke="none" 
	d="
M645.340637,840.026550 
	C644.867737,843.234741 646.931580,847.291565 641.470947,847.353271 
	C638.203369,847.390198 636.585876,846.407104 636.625793,842.816772 
	C636.757202,831.009338 636.749756,819.198792 636.629211,807.391113 
	C636.593811,803.923096 637.982727,802.516357 641.365906,802.734497 
	C646.159180,803.043762 650.970459,802.342834 655.765381,803.459473 
	C666.276733,805.907471 670.684631,818.576660 663.219421,826.442200 
	C660.245178,829.575928 660.479248,831.745361 662.166626,835.053345 
	C664.016357,838.679626 666.485901,842.119385 667.027649,846.320679 
	C660.592896,848.453979 659.564880,848.032104 656.822876,842.367310 
	C655.447205,839.525085 654.027222,836.704407 652.648193,833.863708 
	C651.644897,831.797119 650.465149,830.071045 647.720825,830.749817 
	C645.007935,831.420898 645.390381,833.596008 645.349243,835.560425 
	C645.321411,836.890442 645.341736,838.221436 645.340637,840.026550 
M651.266357,823.644531 
	C651.928223,823.626770 652.599976,823.676208 653.250305,823.580200 
	C657.357666,822.974243 658.752563,820.186035 658.526917,816.481506 
	C658.283386,812.484619 654.454041,810.133789 649.252502,810.357910 
	C643.176575,810.619812 645.897339,815.239441 645.393188,818.162354 
	C644.736084,821.972229 646.019958,824.325745 651.266357,823.644531 
z"/>
<path fill="#000000" opacity="1.000000" stroke="none" 
	d="
M380.390137,831.995605 
	C380.379089,835.993958 380.296173,839.494873 380.379395,842.991821 
	C380.446808,845.824768 379.478882,847.269531 376.372253,847.330627 
	C373.117065,847.394775 371.819916,846.053162 371.878235,842.909607 
	C371.946198,839.245422 372.561493,835.404297 371.700226,831.948853 
	C369.899139,824.723206 363.777618,829.484924 359.716522,828.454590 
	C357.268616,827.833557 354.147064,827.789734 354.308289,832.085144 
	C354.451935,835.911377 354.270203,839.748779 354.301544,843.580627 
	C354.328369,846.860901 352.261993,847.269836 349.648926,847.298462 
	C346.961182,847.327942 345.657990,846.273499 345.667023,843.485413 
	C345.706848,831.154968 345.723877,818.824097 345.644989,806.494019 
	C345.624268,803.259705 347.355469,802.665588 350.085297,802.659119 
	C352.967743,802.652344 354.528137,803.654663 354.321869,806.726135 
	C354.255035,807.721130 354.191193,808.745728 354.347992,809.721008 
	C354.910278,813.217651 352.344879,818.149414 355.781799,819.959961 
	C359.740845,822.045715 364.915710,820.654602 369.558411,820.505859 
	C371.533630,820.442627 371.725525,818.738037 371.752808,817.175659 
	C371.811035,813.843872 371.859619,810.511597 371.868866,807.179382 
	C371.878723,803.625854 373.906097,802.717224 377.086426,802.796631 
	C380.489105,802.881592 380.587494,804.881470 380.537903,807.504211 
	C380.386658,815.499695 380.425293,823.498718 380.390137,831.995605 
z"/>
<path fill="#000000" opacity="1.000000" stroke="none" 
	d="
M209.743790,827.999390 
	C209.735580,820.847656 209.854004,814.192200 209.669296,807.545288 
	C209.566803,803.857422 211.031891,802.504150 214.662018,802.619080 
	C220.643066,802.808411 226.634109,802.733032 232.620270,802.685059 
	C235.177887,802.664490 236.833267,803.500732 236.838943,806.321411 
	C236.844711,809.191956 235.506393,810.540588 232.525543,810.385376 
	C229.706345,810.238586 226.848434,810.599609 224.051544,810.311035 
	C218.971970,809.786804 219.089584,813.015747 218.787155,816.568481 
	C218.436157,820.691711 220.753387,820.812805 223.691071,820.662476 
	C225.515488,820.569092 227.354050,820.559937 229.176727,820.670349 
	C231.930389,820.837158 235.491302,819.562134 235.365845,824.641113 
	C235.239090,829.772705 231.538345,828.028198 228.906982,828.342041 
	C227.595459,828.498474 226.249451,828.356812 224.919144,828.366089 
	C219.242477,828.405701 218.385590,829.496216 218.969131,835.194458 
	C219.224243,837.685608 220.300598,838.718384 222.773773,838.672058 
	C226.430344,838.603516 230.090927,838.757629 233.747925,838.699402 
	C236.694931,838.652527 237.335648,840.308533 237.343719,842.842590 
	C237.351700,845.346497 236.785278,847.099487 233.838394,847.098083 
	C227.020813,847.094849 220.202957,847.105347 213.385696,847.164185 
	C210.450195,847.189514 209.756378,845.460571 209.768921,842.966980 
	C209.793167,838.144592 209.755692,833.321838 209.743790,827.999390 
z"/>
<path fill="#000000" opacity="1.000000" stroke="none" 
	d="
M399.430664,824.566345 
	C401.403015,818.327148 403.319427,812.485901 405.042694,806.588257 
	C405.864136,803.776978 407.359283,802.537842 410.397003,802.607056 
	C413.208405,802.671082 414.937012,803.257080 415.868561,806.312317 
	C419.549377,818.384399 423.518188,830.368408 427.331085,842.400696 
	C427.718964,843.624817 428.453461,844.873291 427.812988,846.254150 
	C422.151947,848.388794 420.641327,848.044067 419.080353,842.585632 
	C417.323303,836.441589 412.643524,838.823303 408.889282,838.322815 
	C405.664185,837.893005 403.658264,838.919922 402.616486,842.364868 
	C400.926636,847.953247 399.623291,848.353821 392.759796,846.177063 
	C394.933716,839.113403 397.114532,832.027283 399.430664,824.566345 
M409.150299,821.075989 
	C408.325653,823.706787 406.880829,826.197754 407.207825,829.223022 
	C409.558624,829.858276 411.758820,830.047791 414.211945,828.857422 
	C413.355621,825.255310 412.894012,821.624084 410.391754,818.233582 
	C409.906921,819.294739 409.636597,819.886414 409.150299,821.075989 
z"/>
<path fill="#000000" opacity="1.000000" stroke="none" 
	d="
M812.680237,810.475037 
	C808.698608,812.800842 810.211365,816.270264 810.758545,819.065735 
	C811.248779,821.570129 814.100708,820.490112 815.965332,820.611328 
	C818.288635,820.762451 820.631775,820.742737 822.960205,820.646790 
	C825.651489,820.535889 826.993103,821.597656 826.957825,824.405945 
	C826.924927,827.029724 825.953308,828.489380 823.116638,828.382812 
	C820.787476,828.295288 818.451965,828.365906 816.119385,828.381470 
	C810.754089,828.417297 808.629150,831.626160 810.449585,836.758911 
	C811.115051,838.635193 812.558411,838.641663 814.069214,838.657959 
	C817.734497,838.697510 821.400513,838.748047 825.065491,838.716492 
	C828.280518,838.688782 828.913879,840.697449 828.897339,843.318787 
	C828.880493,845.989624 827.617676,847.238586 824.887695,847.208435 
	C818.390259,847.136658 811.890869,847.108459 805.393860,847.191589 
	C802.516357,847.228394 801.637024,845.814331 801.636536,843.188232 
	C801.634216,830.859375 801.594788,818.530212 801.485840,806.201904 
	C801.462830,803.598999 802.601074,802.647156 805.092590,802.673096 
	C811.423401,802.739014 817.755493,802.727661 824.086731,802.688538 
	C826.722168,802.672241 828.175659,803.728516 828.143127,806.509583 
	C828.111450,809.213501 826.789062,810.408936 824.096985,810.371582 
	C820.432678,810.320679 816.766602,810.399536 812.680237,810.475037 
z"/>
<path fill="#000000" opacity="1.000000" stroke="none" 
	d="
M605.343201,817.644165 
	C605.530212,820.297485 607.061157,820.649719 608.884583,820.639160 
	C611.048584,820.626587 613.218689,820.547668 615.375305,820.677307 
	C617.967712,820.833191 621.282898,819.627869 621.364807,824.366272 
	C621.452698,829.451111 617.887756,828.130676 615.141968,828.339844 
	C613.817749,828.440735 612.479675,828.352966 611.147949,828.362854 
	C605.708008,828.403259 603.669617,831.447083 605.420471,836.701538 
	C606.053772,838.601929 607.474060,838.642151 608.986450,838.657410 
	C612.482056,838.692627 615.988098,838.857361 619.471069,838.651428 
	C623.073120,838.438477 623.528809,840.672607 623.706055,843.358887 
	C623.913513,846.503174 622.194885,847.340027 619.379944,847.289856 
	C613.388794,847.182922 607.392883,847.138794 601.402832,847.261353 
	C598.084412,847.329224 596.576599,846.215027 596.618042,842.660828 
	C596.755737,830.843079 596.726868,819.022217 596.629211,807.203674 
	C596.603882,804.136292 597.489807,802.560974 600.856506,802.647888 
	C606.845520,802.802368 612.841309,802.732300 618.833923,802.694763 
	C621.532043,802.677795 623.306946,803.377747 623.296448,806.593872 
	C623.285706,809.876526 621.385254,810.430542 618.744385,810.368896 
	C616.581482,810.318359 614.416443,810.360535 612.252319,810.366638 
	C605.369812,810.386230 605.369812,810.387146 605.343201,817.644165 
z"/>
<path fill="#000000" opacity="1.000000" stroke="none" 
	d="
M866.629761,812.731567 
	C864.467590,814.530090 863.544250,813.331177 862.464111,811.803894 
	C860.844360,809.513672 858.371643,809.079651 855.766541,809.437256 
	C853.268616,809.780151 851.317383,811.059143 850.679138,813.591125 
	C849.988342,816.331177 851.696838,818.120239 853.864685,819.166199 
	C856.084778,820.237427 858.520508,820.912048 860.916016,821.559998 
	C868.257446,823.545898 871.240479,826.919128 871.334595,833.539978 
	C871.423889,839.825073 867.600403,845.179626 861.285889,846.771118 
	C855.022400,848.349792 849.041504,847.513733 844.014038,843.000732 
	C842.324524,841.484070 840.779663,839.843933 843.298035,837.676697 
	C845.112061,836.115662 846.557129,833.536011 849.428833,836.354858 
	C851.811646,838.693848 854.787537,839.618347 858.133240,838.863892 
	C860.601135,838.307434 862.574341,837.087524 862.546021,834.255371 
	C862.516235,831.269592 860.626282,829.817749 857.827209,829.410034 
	C857.172424,829.314636 856.496155,829.377747 855.832458,829.330261 
	C848.475403,828.803345 843.906738,825.049805 842.767639,818.606323 
	C841.503967,811.458191 844.107300,805.627441 849.734192,803.003113 
	C855.998474,800.081421 864.861206,801.569458 868.774109,805.984375 
	C871.729858,809.319336 869.532288,810.922668 866.629761,812.731567 
z"/>
<path fill="#000000" opacity="1.000000" stroke="none" 
	d="
M580.968628,809.024536 
	C579.812500,811.852722 577.210083,812.478271 575.632507,813.974731 
	C573.413940,813.773254 573.206726,811.904541 572.103149,810.989258 
	C569.955872,809.208069 567.621399,808.904724 565.112244,809.851501 
	C562.887756,810.690857 561.455078,812.430359 561.569092,814.774353 
	C561.696045,817.385803 563.701294,818.831848 565.984009,819.660889 
	C568.473938,820.565063 571.032349,821.287231 573.578491,822.028748 
	C578.816833,823.554382 581.873779,827.152405 582.153503,832.438110 
	C582.428223,837.629883 580.691650,842.288940 575.849976,845.148010 
	C568.180725,849.676636 558.739990,847.713013 553.156738,840.373840 
	C554.024475,837.977478 555.831482,836.399170 558.187439,834.909119 
	C561.105591,837.069946 564.003906,839.374451 567.989624,838.910645 
	C570.846436,838.578186 573.384277,837.802490 573.531128,834.396240 
	C573.666382,831.259338 571.246521,830.231995 568.755676,829.519592 
	C567.976013,829.296631 567.104309,829.402466 566.275818,829.342834 
	C559.020691,828.820740 554.073181,824.017822 553.655334,817.095276 
	C553.148926,808.705139 557.014648,803.070312 564.647278,801.882568 
	C571.298157,800.847656 577.257812,802.216736 580.968628,809.024536 
z"/>
<path fill="#000000" opacity="1.000000" stroke="none" 
	d="
M684.411316,824.439880 
	C681.848083,817.404480 679.420288,810.733521 677.006714,804.101868 
	C683.310608,801.410767 685.270081,802.132629 687.325867,807.534607 
	C690.251404,815.222351 693.154541,822.918701 696.608765,832.041626 
	C699.739624,823.240845 702.301147,815.919922 704.949646,808.630676 
	C707.376160,801.952637 707.905945,801.717651 715.153015,803.427551 
	C715.952881,805.713196 714.589050,807.627258 713.896301,809.587402 
	C710.022644,820.548706 706.013794,831.462219 702.085449,842.404358 
	C701.092163,845.171082 700.113708,847.445984 696.335510,847.427612 
	C692.708740,847.409912 691.945618,845.120728 691.024719,842.594177 
	C688.863708,836.664856 686.705872,830.734375 684.411316,824.439880 
z"/>
<path fill="#000000" opacity="1.000000" stroke="none" 
	d="
M774.585205,847.279236 
	C759.134888,847.473267 749.592102,836.200867 751.961304,821.105347 
	C754.155701,807.122986 760.980408,801.044617 773.684326,801.645325 
	C776.084717,801.758850 778.269653,802.450195 780.344360,803.519775 
	C783.069214,804.924561 785.990417,806.770325 785.966431,809.976929 
	C785.940552,813.437134 782.081726,813.440002 779.603149,815.051941 
	C776.915527,810.773804 773.560852,808.302856 768.387634,810.198853 
	C762.965210,812.186279 761.510864,816.610413 761.351501,821.702148 
	C761.232605,825.498230 760.853882,829.361206 762.619812,832.988770 
	C765.926636,839.781982 773.098145,841.621399 778.577332,836.531067 
	C781.997314,833.353638 784.381653,835.778137 786.267822,837.529846 
	C788.683655,839.773621 785.624268,841.270874 784.283142,842.650574 
	C781.775085,845.230530 778.479187,846.452759 774.585205,847.279236 
z"/>
<path fill="#000000" opacity="1.000000" stroke="none" 
	d="
M308.335480,802.802246 
	C318.406464,799.826233 326.060791,802.544128 329.990204,810.323608 
	C328.591339,812.763245 326.034821,813.606689 323.441254,814.885498 
	C321.028900,812.545532 318.835297,810.040405 314.795868,810.114380 
	C309.789124,810.206055 306.961151,812.670776 305.623413,816.999512 
	C304.137848,821.806580 303.886353,826.710938 305.255768,831.719360 
	C307.370483,839.453796 315.693817,842.442932 321.517822,836.877380 
	C325.274597,833.287415 327.665802,836.314453 329.418823,838.098572 
	C331.712280,840.432739 328.771057,842.227417 327.022186,843.525818 
	C315.978668,851.724915 301.439850,846.920715 297.369141,833.807190 
	C293.103088,820.064270 297.090179,808.419861 308.335480,802.802246 
z"/>
<path fill="#000000" opacity="1.000000" stroke="none" 
	d="
M500.656006,830.997681 
	C500.657043,826.000488 500.389313,821.481628 500.734680,817.010010 
	C501.086609,812.453979 499.525940,810.463318 494.866943,810.986450 
	C491.902222,811.319214 489.605835,810.738098 489.635437,806.860168 
	C489.657654,803.943237 490.601501,802.587585 493.665161,802.633667 
	C500.827271,802.741272 507.992920,802.740479 515.155151,802.641602 
	C518.036804,802.601868 519.417908,803.505371 519.371338,806.642578 
	C519.328491,809.534485 518.023682,810.653748 515.406311,810.328125 
	C510.087158,809.666443 508.948669,812.289673 509.134674,817.069031 
	C509.458374,825.386353 509.166229,833.725952 509.257294,842.054871 
	C509.293640,845.381836 508.542450,847.411621 504.560150,847.370728 
	C500.427734,847.328186 500.647278,844.740479 500.660431,841.992432 
	C500.677185,838.493958 500.659241,834.995300 500.656006,830.997681 
z"/>
<path fill="#000000" opacity="1.000000" stroke="none" 
	d="
M737.349731,821.001526 
	C737.343628,828.656250 737.246887,835.812805 737.371887,842.965393 
	C737.427734,846.159485 736.248779,847.391663 732.995056,847.370361 
	C729.757263,847.349182 728.600525,846.110901 728.629272,842.926880 
	C728.734619,831.280273 728.739563,819.631592 728.629578,807.985107 
	C728.599304,804.775635 729.766846,803.584106 733.004211,803.605469 
	C736.224243,803.626709 737.491028,804.814148 737.370667,808.023682 
	C737.214905,812.177490 737.343323,816.341858 737.349731,821.001526 
z"/>
</svg>